<?xml version="1.0" standalone="no"?>
<!DOCTYPE svg PUBLIC "-//W3C//DTD SVG 20010904//EN"
 "http://www.w3.org/TR/2001/REC-SVG-20010904/DTD/svg10.dtd">
<svg version="1.0" xmlns="http://www.w3.org/2000/svg"
 width="714.000000pt" height="488.000000pt" viewBox="0 0 714.000000 488.000000"
 preserveAspectRatio="xMidYMid meet">

<g transform="translate(0.000000,488.000000) scale(0.100000,-0.100000)"
fill="#000000" stroke="none">
<path d="M4955 4620 c-505 -43 -951 -345 -1175 -795 -66 -134 -100 -230 -132
-379 -31 -144 -31 -408 0 -552 32 -148 66 -245 132 -379 210 -424 627 -724
1095 -786 l90 -12 590 -587 c642 -640 612 -615 730 -614 99 1 175 51 231 154
18 34 19 79 22 1255 3 1298 0 1404 -43 1584 -65 267 -176 467 -375 675 -301
313 -727 473 -1165 436z"/>
<path d="M1525 4610 c-505 -43 -951 -345 -1175 -795 -66 -134 -100 -230 -132
-379 -31 -144 -31 -408 0 -552 32 -148 66 -245 132 -379 210 -424 627 -724
1095 -786 l90 -12 590 -587 c642 -640 612 -615 730 -614 99 1 175 51 231 154
18 34 19 79 22 1255 3 1298 0 1404 -43 1584 -65 267 -176 467 -375 675 -301
313 -727 473 -1165 436z"/>
</g>
</svg>
